<?xml version="1.0" encoding="UTF-8"?>
<!DOCTYPE svg PUBLIC "-//W3C//DTD SVG 1.1//EN" "http://www.w3.org/Graphics/SVG/1.1/DTD/svg11.dtd">
<!-- Creator: CorelDRAW X8 -->
<svg xmlns="http://www.w3.org/2000/svg" xml:space="preserve" width="100%" height="100%" version="1.1" style="shape-rendering:geometricPrecision; text-rendering:geometricPrecision; image-rendering:optimizeQuality; fill-rule:evenodd; clip-rule:evenodd"
viewBox="0 0 113793 105100"
 xmlns:xlink="http://www.w3.org/1999/xlink">
 <defs>
  <style type="text/css">
   <![CDATA[
    .fil0 {fill:#FEFEFE;fill-rule:nonzero}
   ]]>
  </style>
 </defs>
 <g id="Layer_x0020_1">
  <metadata id="CorelCorpID_0Corel-Layer"/>
  <path class="fil0" d="M87930 53377l2 8744 -5 0 0 38398c0,2523 2058,4581 4582,4581l1184 0c2524,0 4582,-2058 4582,-4581l0 -36800 5171 0c5708,0 10347,-4639 10347,-10342 0,-3089 -1425,-6012 -3820,-7929 -17533,-14757 -49373,-42264 -49691,-42538l-3387 -2910 -3374 2910c-319,274 -32174,27765 -49965,42668 -2263,2026 -3556,4877 -3556,7799 0,5703 4637,10342 10346,10342l5170 0 0 36800c0,2523 2058,4581 4581,4581l1184 0c2524,0 4582,-2058 4582,-4581l0 -38398 0 -8744 -10492 0c-785,0 -1453,-467 -1722,-1204 -269,-737 -60,-1525 541,-2030 14362,-12096 34730,-29611 42705,-36488 7975,6877 28341,24392 42701,36494 600,506 809,1294 541,2031 -270,737 -938,1204 -1722,1204 -4531,0 -10485,-3 -10485,-7zm-30441 4l-1184 0c-2524,0 -4582,2058 -4582,4582l0 42556c0,2523 2058,4581 4582,4581l1184 0c2524,0 4582,-2058 4582,-4581l0 -42556c0,-2524 -2058,-4582 -4582,-4582z"/>
 </g>
</svg>
