<?xml version="1.0" encoding="UTF-8"?>
<!DOCTYPE svg PUBLIC "-//W3C//DTD SVG 1.1//EN" "http://www.w3.org/Graphics/SVG/1.1/DTD/svg11.dtd">
<!-- Creator: CorelDRAW X8 -->
<svg xmlns="http://www.w3.org/2000/svg" xml:space="preserve" width="100%" height="100%" version="1.1" style="shape-rendering:geometricPrecision; text-rendering:geometricPrecision; image-rendering:optimizeQuality; fill-rule:evenodd; clip-rule:evenodd"
viewBox="0 0 89635 105100"
 xmlns:xlink="http://www.w3.org/1999/xlink">
 <defs>
  <style type="text/css">
   <![CDATA[
    .fil0 {fill:#FEFEFE}
   ]]>
  </style>
 </defs>
 <g id="Layer_x0020_1">
  <metadata id="CorelCorpID_0Corel-Layer"/>
  <path class="fil0" d="M62068 18911c-2694,-1122 -5778,147 -6901,2831 -1119,2687 148,5779 2837,6898 12805,5347 21083,17766 21083,31644 0,18897 -15378,34269 -34276,34269 -18894,0 -34271,-15372 -34271,-34269 0,-13762 8181,-26145 20847,-31543 2682,-1141 3927,-4240 2784,-6917 -1144,-2682 -4238,-3925 -6920,-2783 -16560,7055 -27251,23245 -27251,41243 0,24712 20100,44816 44811,44816 24715,0 44824,-20104 44824,-44816 0,-18148 -10823,-34385 -27567,-41373z"/>
  <path class="fil0" d="M45253 55803c2911,0 5274,-2361 5274,-5274l0 -45256c0,-2913 -2363,-5273 -5274,-5273 -2912,0 -5274,2360 -5274,5273l0 45256c0,2913 2362,5274 5274,5274z"/>
 </g>
</svg>
