<?xml version="1.0" encoding="UTF-8"?>
<!DOCTYPE svg PUBLIC "-//W3C//DTD SVG 1.1//EN" "http://www.w3.org/Graphics/SVG/1.1/DTD/svg11.dtd">
<!-- Creator: CorelDRAW X8 -->
<svg xmlns="http://www.w3.org/2000/svg" xml:space="preserve" width="100%" height="100%" version="1.1" style="shape-rendering:geometricPrecision; text-rendering:geometricPrecision; image-rendering:optimizeQuality; fill-rule:evenodd; clip-rule:evenodd"
viewBox="0 0 2594391 2288286"
 xmlns:xlink="http://www.w3.org/1999/xlink">
 <defs>
  <style type="text/css">
   <![CDATA[
    .fil2 {fill:#FEFEFE;fill-rule:nonzero}
    .fil0 {fill:#3BCDE2;fill-rule:nonzero}
    .fil1 {fill:#FF5F99;fill-rule:nonzero}
   ]]>
  </style>
 </defs>
 <g id="Layer_x0020_1">
  <metadata id="CorelCorpID_0Corel-Layer"/>
  <g id="_2405125806848">
   <path class="fil0" d="M151021 1748067l371387 0 0 330355 -371387 0 0 -330355zm0 -421732l371387 0 0 330366 -371387 0 0 -330366zm480233 421732l371429 0 0 330355 -371429 0 0 -330355zm0 -421732l371429 0 0 330366 -371429 0 0 -330366zm0 -421742l371429 0 0 330387 -371429 0 0 -330387zm480229 843474l371426 0 0 330355 -371426 0 0 -330355zm0 -421732l371426 0 0 330366 -371426 0 0 -330366zm0 -421742l371426 0 0 330387 -371426 0 0 -330387zm480233 843474l371433 0 0 330355 -371433 0 0 -330355zm0 -421732l371433 0 0 330366 -371433 0 0 -330366zm0 -421742l371433 0 0 330387 -371433 0 0 -330387zm480332 421742l371333 0 0 330366 -371333 0 0 -330366zm0 -421742l371333 0 0 330387 -371333 0 0 -330387zm-2024931 1336573c29986,29933 71452,47120 113820,47120l2272538 0c42348,0 83820,-17187 113799,-47152 29909,-29944 47117,-71385 47117,-113757l0 -1330741 -2594391 0 0 1330741c0,42372 17209,83813 47117,113789z"/>
   <polygon class="fil0" points="0,738530 2594391,738530 2594391,643266 0,643266 "/>
   <path class="fil0" d="M266792 185300l-105855 0c-42368,0 -83834,17152 -113820,47110 -29908,29965 -47117,71395 -47117,113732l0 186976 2594391 0 0 -186976c0,-42337 -17208,-83767 -47162,-113732 -29934,-29958 -71406,-47110 -113754,-47110l-272940 0 0 210633c0,39293 -31877,71170 -71205,71170l-150015 0c-39331,0 -71134,-31877 -71134,-71170l0 -210633 -1141878 0 0 210633c0,39293 -31906,71170 -71159,71170l-150072 0c-39338,0 -71127,-31877 -71127,-71170l0 -210633 -167153 0z"/>
   <polygon class="fil1" points="0,643266 2594391,643266 2594391,533118 0,533118 "/>
   <polygon class="fil1" points="505072,395933 655144,395933 655144,0 505072,0 "/>
   <polygon class="fil1" points="1939315,395933 2089330,395933 2089330,0 1939315,0 "/>
   <polygon class="fil2" points="631254,1234980 1002683,1234980 1002683,904594 631254,904594 "/>
   <polygon class="fil2" points="1111483,1234980 1482909,1234980 1482909,904594 1111483,904594 "/>
   <polygon class="fil2" points="1591716,1234980 1963149,1234980 1963149,904594 1591716,904594 "/>
   <polygon class="fil2" points="2072048,1234980 2443381,1234980 2443381,904594 2072048,904594 "/>
   <polygon class="fil2" points="151021,1656701 522408,1656701 522408,1326336 151021,1326336 "/>
   <polygon class="fil2" points="631254,1656701 1002683,1656701 1002683,1326336 631254,1326336 "/>
   <polygon class="fil2" points="1111483,1656701 1482909,1656701 1482909,1326336 1111483,1326336 "/>
   <polygon class="fil1" points="1591716,1656701 1963149,1656701 1963149,1326336 1591716,1326336 "/>
   <polygon class="fil2" points="2072048,1656701 2443381,1656701 2443381,1326336 2072048,1326336 "/>
   <polygon class="fil2" points="151021,2078422 522408,2078422 522408,1748067 151021,1748067 "/>
   <polygon class="fil1" points="631254,2078422 1002683,2078422 1002683,1748067 631254,1748067 "/>
   <polygon class="fil2" points="1111483,2078422 1482909,2078422 1482909,1748067 1111483,1748067 "/>
   <polygon class="fil2" points="1591716,2078422 1963149,2078422 1963149,1748067 1591716,1748067 "/>
  </g>
 </g>
</svg>
