<?xml version="1.0" encoding="UTF-8"?>
<!DOCTYPE svg PUBLIC "-//W3C//DTD SVG 1.1//EN" "http://www.w3.org/Graphics/SVG/1.1/DTD/svg11.dtd">
<!-- Creator: CorelDRAW X8 -->
<svg xmlns="http://www.w3.org/2000/svg" xml:space="preserve" width="100%" height="100%" version="1.1" style="shape-rendering:geometricPrecision; text-rendering:geometricPrecision; image-rendering:optimizeQuality; fill-rule:evenodd; clip-rule:evenodd"
viewBox="0 0 112155 112156"
 xmlns:xlink="http://www.w3.org/1999/xlink">
 <defs>
  <style type="text/css">
   <![CDATA[
    .str0 {stroke:#FEFEFE;stroke-width:7055}
    .fil0 {fill:none}
   ]]>
  </style>
 </defs>
 <g id="Layer_x0020_1">
  <metadata id="CorelCorpID_0Corel-Layer"/>
  <path class="fil0 str0" d="M3528 57130l0 -2105c0,-6911 5653,-12563 12561,-12563l26373 0 0 -26373c0,-6907 5653,-12561 12563,-12561l2105 0c6911,0 12563,5654 12563,12561l0 26373 26373 0c6908,0 12561,5652 12561,12563l0 2105c0,6910 -5653,12563 -12561,12563l-26373 0 0 26372c0,6909 -5652,12563 -12563,12563l-2105 0c-6910,0 -12563,-5654 -12563,-12563l0 -26372 -26373 0c-6908,0 -12561,-5653 -12561,-12563z"/>
 </g>
</svg>
