<?xml version="1.0" encoding="UTF-8"?>
<!DOCTYPE svg PUBLIC "-//W3C//DTD SVG 1.1//EN" "http://www.w3.org/Graphics/SVG/1.1/DTD/svg11.dtd">
<!-- Creator: CorelDRAW X8 -->
<svg xmlns="http://www.w3.org/2000/svg" xml:space="preserve" width="100%" height="100%" version="1.1" style="shape-rendering:geometricPrecision; text-rendering:geometricPrecision; image-rendering:optimizeQuality; fill-rule:evenodd; clip-rule:evenodd"
viewBox="0 0 1322918 1181968"
 xmlns:xlink="http://www.w3.org/1999/xlink">
 <defs>
  <style type="text/css">
   <![CDATA[
    .str0 {stroke:#412A82;stroke-width:762}
    .fil5 {fill:none}
    .fil0 {fill:#412A82}
    .fil3 {fill:#FEFEFE;fill-rule:nonzero}
    .fil4 {fill:#FEFEFE;fill-rule:nonzero}
    .fil2 {fill:#412A82;fill-rule:nonzero}
    .fil1 {fill:#412A82;fill-rule:nonzero}
   ]]>
  </style>
 </defs>
 <g id="Layer_x0020_1">
  <metadata id="CorelCorpID_0Corel-Layer"/>
  <g id="_2496756909424">
   <path class="fil0" d="M364778 662660c-7263,3716 -15061,6370 -23395,7965 -9296,1778 -19123,2081 -29482,907 -10359,-1176 -20063,-4137 -29111,-8885 -9050,-4747 -17089,-11598 -24119,-20554 -1253,-1596 -2436,-3269 -3549,-5019 -4076,-3455 -7893,-7448 -11451,-11981 -7029,-8955 -11863,-20324 -14500,-34106 -2208,-11540 -2066,-24692 425,-39455 2060,-12206 5127,-24490 9200,-36853 -1725,-1566 -3403,-3358 -5034,-5378 -1913,-2371 -3712,-5064 -5399,-8080 -3365,-2185 -6565,-5158 -9601,-8920 -3484,-4317 -6592,-9704 -9322,-16159 -2730,-6455 -4984,-14330 -6763,-23626 -2024,-10577 -1973,-22465 154,-35664 2126,-13200 6000,-26815 11621,-40850 5622,-14033 12842,-27958 21662,-41773 8820,-13816 19022,-26483 30607,-38003 11584,-11520 24388,-21446 38410,-29778 14023,-8331 28887,-14000 44593,-17005 19874,-3802 37361,-3576 52462,678 15101,4255 28209,11549 39324,21882 5342,4967 10221,10522 14637,16665l363 335c11114,10334 20223,23210 27327,38630 7104,15421 12464,32586 16083,51498 3128,16347 2965,35898 -489,58655 -3454,22757 -9472,46004 -18055,69742 -8583,23738 -19464,46751 -32643,69043 -11149,18860 -23287,35352 -36413,49476 7632,1643 16249,1546 25853,-291 6091,-1165 11192,-2723 15305,-4672 4112,-1950 7713,-3969 10803,-6054 3089,-2087 5633,-3986 7632,-5697 1998,-1712 3959,-2751 5882,-3119 3526,-675 7556,-449 12091,677 4535,1126 8746,2729 12632,4809 3887,2081 6908,4410 9063,6988 2155,2579 2455,5013 898,7304l-190 275c1804,722 3547,1533 5229,2433 3887,2081 6908,4410 9063,6988 2155,2579 2455,5013 898,7304 -517,764 -2492,3467 -5923,8111 -3431,4644 -8323,9899 -14676,15767 -6354,5867 -14467,11656 -24338,17366 -5702,3298 -12002,6072 -18901,8324 11441,3305 21802,8202 31081,14694 9624,6733 17898,15009 24822,24829 6924,6269 12984,13525 18181,21770 7524,11937 12661,25089 15410,39455 2749,14367 1734,29247 -3043,44640 -4777,15394 -12041,29677 -21794,42851 -9752,13174 -21375,24499 -34868,33975 -13494,9477 -27690,15640 -42589,18491 -1863,357 -3605,621 -5226,794 -1007,106 -1968,177 -2882,213 5140,4984 10918,10193 17332,15625 7569,6412 15726,12642 24467,18692 8743,6050 17823,11345 27241,15886 9419,4542 18953,7889 28604,10040 9652,2153 19000,2364 28046,633 7184,-1375 13191,-3489 18023,-6344 3229,-1908 6055,-3832 8477,-5770 -4487,-497 -8985,-1834 -13496,-4012 -5318,-2569 -10291,-6581 -14921,-12039 -1898,-2237 -3565,-4844 -5002,-7818 -3495,-2383 -6826,-5443 -9998,-9182 -4630,-5457 -7886,-13107 -9770,-22952 -1374,-7184 -1909,-14665 -1606,-22446 305,-7780 1296,-15209 2976,-22288 1679,-7078 4046,-13806 7102,-20181 3054,-6377 6645,-11753 10772,-16127 -3441,-7892 -4494,-16999 -3159,-27320 1335,-10322 4659,-20335 9973,-30040 5314,-9704 12558,-18329 21732,-25877 9174,-7546 20013,-12517 32519,-14910 11705,-2239 21216,-2266 28529,-79 7313,2185 13141,5621 17485,10305 2965,3198 5438,6844 7418,10938 2894,1712 5422,3733 7582,6062 4344,4685 7630,10330 9860,16937 2229,6606 3980,13235 5252,19886 1180,6166 1775,12523 1786,19072 3539,-21034 7150,-41162 10832,-60384 4277,-22329 8227,-42046 11850,-59149 3622,-17103 6819,-31022 9591,-41757 2773,-10735 4539,-17002 5297,-18802 544,-1483 1614,-2377 3211,-2682 2445,-193 5961,168 10549,1083 4588,915 9119,2255 13593,4018 4475,1765 8335,3922 11581,6472 3246,2551 4750,5365 4511,8445 -41,314 -193,1095 -453,2340 4204,1717 7852,3787 10942,6215 3246,2551 4750,5365 4511,8445 -112,849 -1024,5091 -2735,12728 -1711,7635 -3907,17778 -6589,30425 -2683,12649 -5807,27312 -9372,43990 -3566,16679 -7210,34751 -10932,54218 -2600,12356 -4696,24823 -6288,37401 -992,7829 -1835,15175 -2530,22039 1777,-3694 3627,-7653 5552,-11874 3788,-8309 7445,-16938 10973,-25888 2154,-5759 4365,-11481 6630,-17164 1553,-10280 3898,-20392 7034,-30336 4120,-13061 9404,-25448 15850,-37161 6447,-11715 13559,-22107 21338,-31180 7779,-9074 15918,-16629 24415,-22667 6428,-4568 12709,-7845 18842,-9831 -371,-569 -691,-1129 -960,-1678 -359,-830 -301,-2071 174,-3722 -488,-146 -994,-340 -1520,-582 -1740,-801 -3500,-1900 -5280,-3299 -1779,-1398 -3433,-2933 -4963,-4606 -1529,-1673 -2667,-3269 -3411,-4791 -543,-1256 -132,-3451 1235,-6585 1365,-3133 3339,-6649 5919,-10544 2580,-3896 5512,-7933 8795,-12115 3281,-4180 6510,-8049 9684,-11604 3176,-3556 6047,-6524 8615,-8905 2569,-2381 4436,-3684 5603,-3907 3500,-669 7393,-470 11680,600 4286,1069 7351,2864 9194,5384 1008,1319 2207,4227 3597,8724l786 2566c469,98 944,206 1423,326 4286,1069 7351,2864 9194,5384 1008,1319 2207,4227 3597,8724 1390,4495 2798,9291 4227,14385 1427,5094 2655,9735 3684,13922 1028,4188 1611,6646 1751,7376 139,728 -811,1289 -2853,1680 -1167,223 -2545,335 -4132,336 -1587,1 -3202,-143 -4844,-433 -1643,-291 -3191,-676 -4644,-1153 -1451,-478 -2639,-1158 -3565,-2040 -1007,-1319 -1928,-3562 -2761,-6727 -580,-2207 -1114,-4458 -1601,-6755 -802,-72 -1613,-181 -2429,-325 -1643,-291 -3191,-676 -4644,-1153 -1451,-478 -2639,-1158 -3565,-2040 -116,-152 -232,-317 -346,-494l-1077 1587c-1769,2607 -3510,5360 -5224,8257 -2956,5066 -5301,9438 -7037,13118 2886,673 5633,1587 8244,2742 3916,1733 7204,4138 9860,7215 2456,2843 4103,6075 4941,9698l199 87c3916,1733 7204,4138 9860,7215 2658,3077 4369,6610 5132,10601 3054,15964 2737,30159 -953,42586 -3690,12428 -9171,23060 -16443,31897 -7272,8838 -15500,15929 -24682,21271 -9182,5343 -17764,8777 -25746,10305 -2926,560 -5492,843 -7697,851 -2205,9 -4422,-49 -6653,-175 -1728,9708 -2762,19076 -3103,28104 -341,9029 -62,16974 837,23835 123,938 256,1847 399,2727 1965,-698 4037,-1688 6217,-2972 3470,-2042 7009,-4443 10618,-7203 3609,-2758 7101,-5771 10476,-9036 3373,-3266 6162,-6351 8364,-9254 7417,-10244 14564,-21541 21440,-33888 6877,-12348 12991,-23998 18342,-34951 6160,-12486 12003,-25187 17530,-38104 3499,985 6489,2206 8974,3661 2118,974 3965,2344 5544,4110 1579,1767 1907,3841 984,6224 -164,583 -1276,3416 -3338,8499 -2061,5083 -4903,11488 -8527,19214 -3624,7726 -7960,16416 -13008,26069 -5047,9653 -10732,19222 -17054,28705 -6321,9484 -13156,18445 -20505,26883 -7349,8440 -15031,15494 -23048,21165 -3900,2676 -8808,5133 -14724,7368 -439,166 -885,331 -1337,493 1374,967 2932,1283 4673,950 2926,-560 6125,-1861 9596,-3905 3470,-2042 7009,-4443 10618,-7203 3609,-2758 7101,-5771 10476,-9036 3373,-3266 6162,-6351 8364,-9254 7417,-10244 14564,-21541 21440,-33888 6877,-12348 12991,-23998 18342,-34951 6160,-12486 12003,-25187 17530,-38104 3499,985 6489,2206 8974,3661 2118,974 3965,2344 5544,4110 1579,1767 1907,3841 984,6224 -164,583 -1276,3416 -3338,8499 -2061,5083 -4903,11488 -8527,19214 -3624,7726 -7960,16416 -13008,26069 -5047,9653 -10732,19222 -17054,28705 -6321,9484 -13156,18445 -20505,26883 -7349,8440 -15031,15494 -23048,21165 -3900,2676 -8808,5133 -14724,7368 -5916,2235 -12997,4142 -21245,5720 -1596,305 -4853,583 -9769,834 -4915,251 -10128,-682 -15635,-2799 -5508,-2118 -10855,-5922 -16042,-11411 -2371,-2508 -4428,-5637 -6172,-9389 -2872,-1933 -5700,-4349 -8481,-7247 -2790,5591 -5661,10966 -8611,16124 -5580,9754 -11228,18075 -16943,24960 -5716,6886 -11234,10837 -16555,11855 -7981,1527 -15069,884 -21261,-1930 -6192,-2814 -11034,-8300 -14525,-16457l-173 -408 -302 -135c-6192,-2814 -11034,-8300 -14525,-16457 -2392,-5588 -4062,-12477 -5011,-20669 -3535,1942 -7347,3679 -11436,5210 -3529,8948 -7823,17493 -12885,25632 -5062,8139 -10687,15489 -16879,22052 -6190,6563 -12917,12124 -20180,16686 -5069,3182 -10377,5639 -15924,7369l80 406c664,3471 1032,6931 1101,10377 683,-779 1302,-1528 1861,-2243 1772,-2269 3057,-3480 3854,-3633 1597,-305 3182,770 4756,3227 1572,2457 2715,5547 3428,9272 1324,6917 1466,13785 426,20604 -1040,6818 -3658,13317 -7853,19498 -4195,6181 -10190,11602 -17986,16266 -7795,4663 -17679,8139 -29652,10430 -11174,2138 -22668,1166 -34480,-2917 -11813,-4083 -23413,-9931 -34798,-17543 -11385,-7612 -22296,-16349 -32732,-26212 -10438,-9862 -19812,-19583 -28127,-29162 -2030,-2339 -3985,-4630 -5865,-6874 -3175,-3393 -6220,-6768 -9135,-10126 -7162,-8252 -13392,-15915 -18691,-22988 -1464,8605 -2956,17060 -4477,25365 -1754,9575 -3315,18354 -4682,26339 -1369,7983 -2583,14973 -3642,20967 -1059,5995 -1866,10424 -2422,13288 -958,6527 -1162,11944 -614,16251 548,4308 1223,7833 2024,10576 800,2743 1541,4808 2219,6195 679,1386 804,2397 374,3031 -646,951 -2166,1655 -4560,2113 -3459,662 -8040,504 -13742,-473 -5704,-977 -11239,-2883 -16608,-5716 -5369,-2835 -9905,-6724 -13609,-11669 -1478,-1974 -2619,-4134 -3421,-6478 -4492,-2707 -8351,-6213 -11579,-10522 -3704,-4946 -5288,-11055 -4748,-18328 289,-2814 1161,-8703 2617,-17670 1456,-8966 3339,-19669 5647,-32107 2309,-12439 4866,-26098 7674,-40976 2807,-14879 5680,-29769 8621,-44673 6017,-31753 12783,-66523 20296,-104304 -2084,2235 -4049,4510 -5895,6826 -5449,6833 -9983,13768 -13601,20804 -8793,16024 -14278,33483 -16455,52378 -1330,254 -4292,269 -8886,46 -4593,-225 -9548,-1621 -14867,-4189 -5317,-2568 -10421,-6901 -15311,-12997 -1583,-1974 -3022,-4215 -4317,-6722 -3668,-2546 -7229,-5972 -10683,-10278 -4890,-6098 -8404,-14734 -10542,-25908 -2138,-11174 295,-22602 7299,-34284 7004,-11683 16923,-22544 29757,-32584 12834,-10041 27623,-18868 44368,-26485 13652,-6210 27486,-10987 41502,-14334 -794,-371 -1580,-759 -2356,-1165 -13479,-7056 -24871,-16672 -34178,-28846zm-66266 -40086c4166,-797 8599,-2808 13299,-6033 4699,-3225 9565,-7312 14599,-12262 -3197,-8028 -5788,-15922 -7770,-23683 -1984,-7761 -3559,-14686 -4724,-20777 -1165,-6090 -1875,-11104 -2130,-15042 -255,-3938 -253,-6098 5,-6481 1419,-1268 3571,-2178 6456,-2730 3526,-674 7671,-720 12434,-137 4763,585 7871,2067 9323,4447 887,1160 2328,4787 4326,10885 170,518 348,1042 533,1573l818 95c4763,585 7871,2067 9323,4447 726,950 1824,3554 3295,7815 9253,-13995 18194,-29629 26821,-46904 10088,-20205 18632,-41111 25628,-62718 6997,-21607 12009,-43166 15037,-64678 3027,-21513 2793,-41403 -703,-59674 -1288,-6730 -2628,-12870 -4022,-18418 -442,-1760 -950,-3430 -1526,-5014l-426 -161c-4466,-1637 -10226,-1781 -17277,-432 -4488,859 -10718,3463 -18691,7813 -7972,4349 -16517,10054 -25632,17115 -9116,7059 -18321,15384 -27617,24971 -9297,9586 -17498,20126 -24602,31620 -7104,11493 -12647,23767 -16629,36823 -530,1738 -1009,3485 -1439,5239 2540,-1757 4960,-2856 7258,-3296 7052,-1349 13196,-1362 18434,-38 5238,1324 9574,3152 13011,5485 4459,2469 8210,5572 11251,9311 -1070,1371 -2129,2746 -3174,4126 2613,1016 4921,2204 6923,3563 4459,2469 8210,5572 11251,9311 -12810,16405 -23832,33467 -33069,51182 -3902,7392 -7616,15329 -11143,23813 -3527,8483 -6417,17260 -8668,26329 -2252,9070 -3752,18162 -4501,27276 -747,9114 -263,18159 1454,27134 548,2863 1232,5578 2052,8143l212 -38zm305686 -253850c16,681 -270,2231 -860,4649 3824,1679 7258,3492 10302,5440 3596,2302 5449,4606 5558,6911 47,1985 -2479,11356 -7579,28115 -5101,16758 -10960,38231 -17578,64417 -4109,16734 -6970,31735 -8584,45003 -1454,11936 -2348,22218 -2685,30848 2975,-4709 6206,-10100 9693,-16175 5359,-9332 10964,-19541 16817,-30629 5853,-11088 10485,-21610 13896,-31566 519,-764 797,-1482 834,-2154 38,-671 316,-1389 835,-2153 334,-1724 718,-3625 1151,-5702 433,-2076 818,-3977 1151,-5703 5309,-22613 10724,-42505 16243,-59675 5521,-17172 10825,-31560 15914,-43167 5621,-14034 11130,-26052 16525,-36056 1160,-886 2220,-1422 3182,-1606 2885,-551 6816,26 11794,1731 4979,1706 9842,3683 14592,5930 4749,2248 8938,4604 12565,7066 3628,2462 5695,4144 6199,5044 443,956 248,3108 -587,6452 3462,1770 6592,3606 9388,5504 3628,2462 5695,4144 6199,5044 565,1220 92,4385 -1424,9492 -1514,5108 -3780,11938 -6794,20488 -3016,8553 -6573,18619 -10670,30202 -4096,11582 -8475,24298 -13135,38149 -4659,13849 -8312,27755 -10956,41718 -2151,11355 -3744,21890 -4781,31603 3821,-8219 7910,-17381 12262,-27486 4601,-10683 9027,-21413 13277,-32195 2576,-6890 5218,-13734 7927,-20532 298,-2104 621,-4216 966,-6337 2598,-15948 6458,-31805 11582,-47570 5124,-15767 11516,-30114 19177,-43043 7659,-12929 16440,-23913 26340,-32950 9900,-9039 20940,-14723 33120,-17053 8334,-1595 15375,-1696 21123,-304 5749,1392 10515,3720 14295,6984 3781,3263 6869,7241 9261,11934 276,541 543,1087 801,1637 1799,997 3446,2140 4938,3429 995,859 1942,1767 2841,2725 470,-1043 909,-2028 1316,-2957 1272,-2901 2557,-5307 3853,-7216 1235,-2230 2371,-4108 3407,-5636 259,-381 1030,-695 2313,-940 2563,-491 5968,-63 10213,1285 4245,1347 8456,2951 12633,4810 4177,1858 7807,3905 10893,6139 3086,2234 4881,3801 5385,4701 504,900 380,2420 -374,4557 -177,501 -384,1077 -624,1728 4059,1825 7596,3830 10613,6014 3086,2234 4881,3801 5385,4701 504,900 380,2420 -374,4557 -754,2138 -2079,5631 -3975,10479 -1897,4849 -4433,11564 -7609,20146 -3176,8583 -7254,19829 -12234,33740 -4661,13850 -8282,27917 -10866,42200 -2088,11552 -3709,22143 -4861,31777 3843,-8271 7944,-17572 12298,-27900 4569,-10843 8980,-21655 13231,-32436 3138,-7910 6341,-15916 9608,-24017 1532,-3799 2999,-7458 4403,-10976 6503,-33387 16562,-72072 22062,-104600 -7354,-1233 -14540,-2746 -21557,-4541 -12395,-3166 -24434,-6124 -36132,-8873 -11684,-2748 -23100,-4674 -34237,-5772 -11131,-1099 -22027,-330 -32676,2318 -12610,3138 -22930,6520 -30954,10149 -8018,3635 -14490,6950 -19396,9959 -4905,3005 -8568,5627 -10991,7865 -2419,2236 -4468,3563 -6146,3978 -1964,490 -4164,-301 -6619,-2369 -2444,-2071 -4366,-5906 -5760,-11511 -241,-972 -322,-2361 -240,-4167 -863,519 -1656,868 -2381,1047 -1964,490 -4164,-301 -6619,-2369 -2444,-2071 -4366,-5906 -5760,-11511 -557,-2242 -256,-6707 909,-13398 1162,-6681 3977,-13926 8430,-21732 4465,-7803 11077,-15326 19839,-22559 8765,-7236 20434,-12670 35007,-16289 10085,-2511 21330,-2774 33724,-798 12391,1979 25570,5028 39538,9142 13972,4113 28427,8705 43374,13772 14946,5060 30260,9211 45944,12451 776,-6435 2331,-13968 4655,-22578 2321,-8610 5586,-17015 9807,-25197 4208,-8195 9731,-15592 16571,-22204 6843,-6606 15162,-11128 24972,-13566 11488,-2863 21523,-3490 30102,-1903 8578,1586 15807,4325 21685,8220 5880,3895 10510,8474 13901,13728 924,1435 1767,2851 2528,4249 5206,3678 9361,7930 12472,12751 3388,5259 5678,10269 6859,15035 3138,12612 3433,23695 899,33249 -2533,9557 -6817,17765 -12850,24624 -6029,6849 -13322,12536 -21875,17042 -8553,4503 -17309,7869 -26273,10102 -2809,693 -5555,1305 -8249,1827 -2701,519 -5485,988 -8360,1403 -396,3176 -1368,6704 -2524,10580 -5766,26976 -11343,53924 -16523,81024 -3135,14886 -5656,29905 -7578,45058 -1793,14177 -3186,27043 -4175,38595 3377,-6733 7009,-14356 10888,-22865 4563,-10010 8971,-20406 13221,-31188 3078,-8230 6248,-16397 9519,-24500 3265,-8101 6241,-15564 8920,-22388 2819,-7850 5668,-15539 8547,-23069 4212,1187 7787,2495 10719,3933 2872,1108 5260,2729 7163,4857 1900,2128 2296,4630 1181,7499 -149,405 -358,990 -626,1752 2756,900 5183,1863 7282,2892 2872,1108 5260,2729 7163,4857 1900,2128 2296,4630 1181,7499 -656,1786 -2473,7036 -5459,15744 -2983,8712 -6815,19082 -11492,31109 -4674,12027 -10029,24849 -16067,38459 -6030,13616 -12410,26298 -19133,38053 -6720,11751 -13528,21774 -20412,30073 -6887,8294 -13534,13053 -19943,14279 -9617,1839 -18155,1067 -25615,-2328 -6930,-3147 -12455,-9073 -16576,-17777 -5810,-3093 -10569,-8268 -14275,-15523 -2451,4973 -4943,9796 -7476,14469 -6630,12234 -13438,22673 -20422,31320 -6985,8646 -13683,13582 -20093,14809 -14745,2821 -26354,-1852 -34830,-14020 -1339,-1923 -2566,-3991 -3683,-6202 -4247,-2465 -8019,-6064 -11317,-10798 -3382,-4855 -6052,-10628 -8012,-17316 -1112,1898 -2242,3806 -3391,5727 -5160,8629 -10603,16648 -16329,24057 -5726,7408 -11667,13695 -17823,18860 -6155,5165 -12117,8299 -17887,9403 -8333,1595 -15324,-639 -20969,-6703 -2966,-3185 -5512,-7048 -7636,-11587 -2667,-1201 -5122,-3004 -7364,-5413 -1986,-2132 -3783,-4568 -5391,-7307 -2633,5339 -5308,10519 -8030,15539 -6631,12234 -13358,22659 -20182,31275 -6825,8615 -13442,13536 -19852,14762 -13142,2515 -23908,-1655 -32298,-12510 -1878,-2430 -3598,-5086 -5163,-7966 -3579,-2169 -6858,-5179 -9837,-9034 -3293,-4261 -6105,-9214 -8434,-14862 -6289,11168 -12698,21270 -19227,30306 -9195,12724 -17960,19883 -26294,21477 -5769,1104 -11941,541 -18514,-1689 -6575,-2232 -12515,-5497 -17824,-9798 -5308,-4301 -9683,-9362 -13122,-15183l-367 -634c-509,-385 -1013,-779 -1511,-1183 -5308,-4301 -9683,-9362 -13122,-15183 -3439,-5820 -5101,-11898 -4983,-18234 -13,-13954 1005,-28602 3054,-43945 2048,-15345 4653,-30379 7817,-45106 3163,-14727 6464,-28732 9903,-42015 5889,-23057 12670,-45785 20346,-68187 1159,-887 2541,-1483 4144,-1790 3205,-613 7300,-483 12285,391 4985,873 9822,2274 14509,4202 4689,1927 8831,4041 12429,6343 3596,2302 5449,4606 5558,6911zm92238 196789c-2041,2963 -4092,5762 -6151,8395 145,521 308,845 491,969 382,259 1971,-2288 4768,-7641l892 -1723zm-99865 7479c-560,793 -1120,1578 -1681,2355 -3165,4380 -6279,8100 -9342,11161 130,217 257,368 385,455 703,197 3127,-2758 7274,-8868 1081,-1592 2201,-3293 3364,-5103zm302012 -46519c-1703,2393 -3417,4676 -5142,6850 130,367 270,602 420,703 380,259 1954,-2260 4722,-7553zm-72778 -34291c-153,-3467 -193,-7077 -121,-10833 -4420,8155 -9210,16548 -14372,25178 -5099,8528 -10475,16460 -16128,23796 2149,-966 4992,-3534 8527,-7705 4202,-4957 8780,-10984 13736,-18079 2785,-3987 5570,-8106 8358,-12357zm25868 -122463c103,-4671 -51,-9377 -459,-14117 -161,-1872 -359,-3658 -591,-5361 -5146,2120 -10362,7247 -15648,15380 -6290,9677 -12130,21261 -17523,34753 -5393,13491 -10251,28044 -14574,43656 -4322,15612 -7657,29874 -10005,42784 -1110,6103 -1944,11708 -2502,16814 3740,-4554 7765,-9918 12076,-16089 4955,-7094 9914,-14606 14877,-22533 4962,-7927 9326,-15075 13091,-21444 1502,-11252 4423,-23773 8762,-37561 4339,-13789 8505,-25882 12496,-36282zm152196 131203c-1947,2696 -3899,5252 -5859,7667 93,234 194,391 306,467 383,263 1890,-1856 4519,-6346 334,-571 680,-1167 1034,-1788zm40688 -274334c1909,-1568 3686,-3324 5331,-5265 5757,-6783 9718,-13569 11903,-20364 557,-1731 974,-3399 1251,-5004 -2836,909 -5476,3122 -7927,6639 -2631,3775 -4984,8376 -7061,13803 -1233,3229 -2398,6626 -3497,10191zm-648780 538624c1787,909 3573,1968 5358,3180 2695,1828 5189,3695 7484,5600 2295,1906 4127,3554 5497,4947 3374,3298 5721,6659 7041,10083 844,652 1665,1309 2462,1970 2295,1906 4127,3554 5497,4947 5428,5305 8198,10774 8310,16406 113,5632 -412,11179 -1573,16641 -63,1116 -577,3834 -1542,8156 -966,4322 -2048,9837 -3246,16548 -1198,6711 -2564,14349 -4096,22916 -551,3081 -1117,6219 -1701,9413 12166,-2363 22649,-8160 31451,-17393 8843,-9276 16037,-19962 21584,-32054 5546,-12093 9315,-24467 11307,-37121 1992,-12653 2122,-23503 391,-32549 -1472,-7695 -3651,-14368 -6534,-20020 -9372,-6083 -19420,-8098 -30144,-6046 -13036,2495 -24555,6078 -34555,10750 -8578,4006 -16242,8548 -22991,13626zm298307 111171l-567 540c-490,2199 -998,4359 -1520,6478 628,-569 1247,-1150 1858,-1744 52,-1718 129,-3476 229,-5274zm-37178 38796c-503,844 -1015,1685 -1535,2521 -5062,8139 -10687,15489 -16879,22052 -6190,6563 -12917,12124 -20180,16686 -1708,1072 -3443,2062 -5206,2970 814,604 1663,823 2546,654 9844,-1884 18108,-6980 24791,-15292 6684,-8312 12650,-18210 17900,-29694 -478,39 -956,74 -1437,103zm-44498 -74566c398,363 773,734 1123,1112 2003,1823 3633,3856 4890,6098 -1097,980 -2286,2098 -3569,3352 2486,616 4721,1439 6708,2472 2910,1512 5234,3204 6971,5078 2003,1823 3633,3856 4890,6098 -1178,1052 -2462,2264 -3856,3633 -1126,1319 -2480,2888 -4064,4708 -465,535 -936,1100 -1413,1697 343,146 688,289 1036,430 7624,3093 16144,4013 25557,2764 4525,-13828 7869,-27706 10030,-41634 2162,-13927 2326,-25680 494,-35258 -459,-2394 -1082,-5653 -1871,-9777 -493,-2577 -1136,-5098 -1931,-7562 -580,29 -1177,101 -1792,219 -6652,1273 -12639,4212 -17964,8815 -5324,4605 -9859,10092 -13605,16462 -3745,6371 -6724,13146 -8935,20327 -1146,3721 -2046,7376 -2699,10966zm-6088 100949c7390,-2532 13765,-7128 19123,-13792 3500,-4353 6803,-9140 9910,-14363 -8543,-1838 -17451,-5006 -26723,-9505 -1693,5564 -2832,11505 -3416,17822 -584,6314 -215,12926 1106,19838zm175055 -59389c-3959,8434 -8089,16410 -12388,23926 -4630,8094 -9307,15201 -14031,21320 52,3580 311,5527 776,5843 317,215 1567,-1541 3749,-5268 2183,-3727 4881,-8725 8094,-14994 3213,-6268 6715,-13557 10503,-21866 1186,-2600 2358,-5232 3518,-7895l-221 -1066zm81498 -86733c4948,-3437 9472,-7810 13571,-13118 5531,-7126 9532,-13960 12004,-20500 1409,-3727 2488,-7190 3236,-10388 -1146,888 -2297,1886 -3452,2996 -4659,4477 -9089,10151 -13291,17022 -4200,6871 -8198,14807 -11992,23807l-76 181zm37023 -145489c-111,-1048 -217,-2110 -317,-3185 -1561,2113 -3254,4326 -5080,6640 -1414,2085 -3007,4431 -4776,7037 -523,770 -1043,1553 -1560,2348 1570,-1878 3126,-3681 4670,-5410 2550,-2856 4905,-5332 7063,-7430zm100838 133758c-707,-3696 -449,-8535 773,-14516 1221,-5981 3209,-12673 5963,-20074 2754,-7401 6379,-15251 10877,-23549 4497,-8298 9689,-16504 15575,-24617 5006,-6818 10235,-14243 15685,-22272 5451,-8030 10456,-16030 15016,-24003 4560,-7972 8173,-15594 10839,-22866 1944,-5303 2976,-10043 3098,-14219 -4508,-472 -10226,-45 -17154,1280 -14568,2788 -26564,6942 -35987,12464 -9424,5522 -16943,11582 -22555,18177 -5613,6596 -9718,13410 -12317,20444 -2598,7033 -4420,13411 -5466,19133 -1047,5722 -1661,10460 -1845,14215 -183,3753 -710,5714 -1579,5880 -1305,250 -3356,134 -6151,-345 -2797,-479 -5783,-1654 -8959,-3526 -3175,-1872 -6157,-4794 -8946,-8768 -1393,-1985 -2593,-4287 -3601,-6907 -805,-394 -1622,-835 -2453,-1325 -3175,-1872 -6157,-4794 -8946,-8768 -2789,-3975 -4807,-9223 -6055,-15746 -1290,-6741 -716,-14344 1721,-22812 2436,-8467 7315,-16838 14634,-25113 7319,-8275 17521,-15917 30604,-22929 13083,-7011 29735,-12451 49957,-16320 6957,-1331 14602,-1723 22933,-1176 8332,547 16283,2350 23855,5409 7573,3059 14199,7652 19878,13777 2618,2824 4828,6014 6628,9569 2988,2158 5779,4634 8372,7431 5680,6125 9435,13971 11265,23539 1872,9783 1155,18993 -2151,27626 -3307,8635 -8028,17821 -14166,27561 -6139,9739 -13078,20589 -20819,32550 -7741,11962 -15198,26293 -22371,42991 -3410,8090 -5851,15656 -7320,22699 -1470,7044 -2497,13157 -3084,18339 -585,5184 -924,9306 -1014,12366 -92,3060 -680,4694 -1767,4902 -2392,457 -5602,170 -9631,-862 -4030,-1032 -7999,-2639 -11910,-4820 -3912,-2182 -7460,-4827 -10647,-7937 -3187,-3109 -5114,-6403 -5779,-9882l-1 -7c-3353,-2014 -6425,-4384 -9220,-7111 -3187,-3109 -5114,-6403 -5779,-9882zm-2835 27589c2392,-457 5428,-193 9111,792 3682,986 7447,2407 11295,4262 3850,1856 7339,3893 10467,6112 3129,2219 5337,4332 6623,6340 1281,1938 2120,4257 2517,6953 2077,1174 4030,2409 5860,3707 3129,2219 5337,4332 6623,6340 1586,2400 2495,5382 2725,8944 231,3562 -103,7120 -1000,10672 -898,3553 -2216,6679 -3953,9378 -1738,2699 -3911,4298 -6521,4797 -2608,499 -5785,93 -9530,-1219 -3745,-1312 -7344,-3046 -10800,-5202 -3455,-2157 -6605,-4484 -9449,-6983 -2845,-2497 -4802,-4772 -5870,-6821 -622,-1271 -1120,-2724 -1493,-4361 -2753,-1823 -5298,-3763 -7637,-5818 -2845,-2497 -4802,-4772 -5870,-6821 -1110,-2267 -1824,-5117 -2143,-8550 -318,-3432 -160,-6730 473,-9894 635,-3165 1678,-5956 3131,-8375 1453,-2420 3266,-3837 5441,-4253zm-327897 250239c2063,-2355 5397,-5056 9802,-8016 -5221,1820 -9969,3323 -14190,4428 -4423,1160 -7803,-3374 -10428,-5641 -2625,-2267 -2718,-4885 -184,-7771 25257,-28833 237778,-108683 349123,-99337 13150,1104 21925,4328 26510,7879 4592,3550 5896,7172 3925,10871 -151,283 -310,557 -477,822 5164,1464 9005,3334 11552,5307 4592,3550 5896,7172 3925,10871 -1980,3701 -5253,5877 -9820,6527 -3578,465 -9598,2833 -18147,2146 -140923,-11260 -285650,70849 -340979,85326 -4423,1160 -7803,-3374 -10428,-5641 -2625,-2267 -2718,-4885 -184,-7771z"/>
   <path class="fil1" d="M613198 374724c47,1985 -2479,11356 -7579,28115 -5101,16758 -10960,38231 -17578,64417 -4109,16734 -6970,31735 -8584,45003 -1616,13267 -2541,24492 -2777,33675 -238,9182 55,16353 876,21513 820,5158 1613,7997 2377,8516 703,197 3127,-2758 7274,-8868 4148,-6110 8901,-13830 14258,-23163 5359,-9332 10964,-19541 16817,-30629 5853,-11088 10485,-21610 13896,-31566 519,-764 797,-1482 834,-2154 38,-671 316,-1389 835,-2153 334,-1724 718,-3625 1151,-5702 433,-2076 818,-3977 1151,-5703 5309,-22613 10724,-42505 16243,-59675 5521,-17172 10825,-31560 15914,-43167 5621,-14034 11130,-26052 16525,-36056 1160,-886 2220,-1422 3182,-1606 2885,-551 6816,26 11794,1731 4979,1706 9842,3683 14592,5930 4749,2248 8938,4604 12565,7066 3628,2462 5695,4144 6199,5044 565,1220 92,4385 -1424,9492 -1514,5108 -3780,11938 -6794,20488 -3016,8553 -6573,18619 -10670,30202 -4096,11582 -8475,24298 -13135,38149 -4659,13849 -8312,27755 -10956,41718 -2645,13963 -4447,26685 -5407,38165 -960,11481 -1391,20950 -1294,28407 99,7458 530,11446 1293,11964 382,259 1971,-2288 4768,-7641 2797,-5353 6199,-12317 10207,-20892 4007,-8575 8313,-18204 12914,-28886 4601,-10683 9027,-21413 13277,-32195 3077,-8231 6249,-16397 9517,-24498 3268,-8101 6082,-15534 8443,-22299 2817,-7848 5696,-15378 8637,-22585 4215,1187 7787,2497 10720,3930 2550,1172 4777,2823 6679,4952 1902,2127 2297,4627 1185,7498 -655,1787 -2444,7196 -5367,16228 -2924,9032 -6759,19817 -11503,32354 -4745,12537 -10169,25868 -16271,39995 -6102,14125 -12468,27306 -19099,39538 -6631,12234 -13358,22659 -20182,31275 -6825,8615 -13442,13536 -19852,14762 -13142,2515 -23908,-1655 -32298,-12510 -8390,-10855 -13654,-26211 -15792,-46071 -8719,16952 -17675,31791 -26869,44515 -9195,12724 -17960,19883 -26294,21477 -5769,1104 -11941,541 -18514,-1689 -6575,-2232 -12515,-5497 -17824,-9798 -5308,-4301 -9683,-9362 -13122,-15183 -3439,-5820 -5101,-11898 -4983,-18234 -13,-13954 1005,-28602 3054,-43945 2048,-15345 4653,-30379 7817,-45106 3163,-14727 6464,-28732 9903,-42015 5889,-23057 12670,-45785 20346,-68187 1159,-887 2541,-1483 4144,-1790 3205,-613 7300,-483 12285,391 4985,873 9822,2274 14509,4202 4689,1927 8831,4041 12429,6343 3596,2302 5449,4606 5558,6911z"/>
   <path class="fil1" d="M825054 306778c8334,-1595 15375,-1696 21123,-304 5749,1392 10515,3720 14295,6984 3781,3263 6869,7241 9261,11934 2394,4692 4111,9762 5154,15211 1890,-4016 3470,-7475 4742,-10377 1272,-2901 2557,-5307 3853,-7216 1235,-2230 2371,-4108 3407,-5636 259,-381 1030,-695 2313,-940 2563,-491 5968,-63 10213,1285 4245,1347 8456,2951 12633,4810 4177,1858 7807,3905 10893,6139 3086,2234 4881,3801 5385,4701 504,900 380,2420 -374,4557 -754,2138 -2079,5631 -3975,10479 -1897,4849 -4433,11564 -7609,20146 -3176,8583 -7254,19829 -12234,33740 -4661,13850 -8282,27917 -10866,42200 -2582,14284 -4450,27100 -5600,38452 -1151,11351 -1597,20739 -1340,28166 258,7427 769,11400 1533,11917 382,260 1971,-2287 4768,-7640 2797,-5353 6199,-12317 10207,-20892 4008,-8575 8298,-18284 12869,-29126 4569,-10843 8980,-21655 13231,-32436 3138,-7910 6341,-15916 9608,-24017 3268,-8102 6243,-15565 8924,-22391 2818,-7849 5666,-15538 8545,-23066 4214,1187 7787,2497 10720,3929 2611,1494 4868,3305 6770,5434 1903,2127 2298,4626 1186,7497 -654,1787 -2444,7197 -5368,16228 -2923,9033 -6837,19833 -11743,32401 -4905,12567 -10393,25995 -16464,40280 -6073,14287 -12423,27547 -19054,39780 -6630,12234 -13438,22673 -20422,31320 -6985,8646 -13683,13582 -20093,14809 -14745,2821 -26354,-1852 -34830,-14020 -8474,-12167 -12485,-30090 -12031,-53767 -4420,8155 -9210,16548 -14372,25178 -5160,8629 -10603,16648 -16329,24057 -5726,7408 -11667,13695 -17823,18860 -6155,5165 -12117,8299 -17887,9403 -8333,1595 -15324,-639 -20969,-6703 -5646,-6063 -9767,-14579 -12364,-25545 -2597,-10966 -3913,-23922 -3948,-38867 -35,-14945 1246,-30391 3843,-46338 2598,-15948 6458,-31805 11582,-47570 5124,-15767 11516,-30114 19177,-43043 7659,-12929 16440,-23913 26340,-32950 9900,-9039 20940,-14723 33120,-17053zm35619 68941c103,-4671 -51,-9377 -459,-14117 -408,-4740 -1045,-8937 -1911,-12592 -865,-3656 -2154,-6483 -3865,-8481 -1712,-1998 -4010,-2722 -6894,-2170 -6091,1165 -12280,6586 -18569,16262 -6290,9677 -12130,21261 -17523,34753 -5393,13491 -10251,28044 -14574,43656 -4322,15612 -7657,29874 -10005,42784 -2348,12909 -3461,23587 -3340,32037 122,8450 1625,12399 4510,11847 2243,-430 5467,-3123 9668,-8080 4202,-4957 8780,-10984 13736,-18079 4955,-7094 9914,-14606 14877,-22533 4962,-7927 9326,-15075 13091,-21444 1502,-11252 4423,-23773 8762,-37561 4339,-13789 8505,-25882 12496,-36282z"/>
   <path class="fil2" d="M972306 238131c776,-6435 2331,-13968 4655,-22578 2321,-8610 5586,-17015 9807,-25197 4208,-8195 9731,-15592 16571,-22204 6843,-6606 15162,-11128 24972,-13566 11488,-2863 21523,-3490 30102,-1903 8578,1586 15807,4325 21685,8220 5880,3895 10510,8474 13901,13728 3388,5259 5678,10269 6859,15035 3138,12612 3433,23695 899,33249 -2533,9557 -6817,17765 -12850,24624 -6029,6849 -13322,12536 -21875,17042 -8553,4503 -17309,7869 -26273,10102 -2809,693 -5555,1305 -8249,1827 -2701,519 -5485,988 -8360,1403 -396,3176 -1368,6704 -2524,10580 -5766,26976 -11343,53924 -16523,81024 -3135,14886 -5656,29905 -7578,45058 -1916,15152 -3376,28806 -4373,40960 -998,12153 -1577,22147 -1739,29988 -161,7837 140,12014 903,12533 383,263 1890,-1856 4519,-6346 2628,-4490 5880,-10510 9753,-18062 3866,-7553 8087,-16334 12650,-26343 4563,-10010 8971,-20406 13221,-31188 3078,-8230 6248,-16397 9519,-24500 3265,-8101 6241,-15564 8920,-22388 2819,-7850 5668,-15539 8547,-23069 4212,1187 7787,2495 10719,3933 2872,1108 5260,2729 7163,4857 1900,2128 2296,4630 1181,7499 -656,1786 -2473,7036 -5459,15744 -2983,8712 -6815,19082 -11492,31109 -4674,12027 -10029,24849 -16067,38459 -6030,13616 -12410,26298 -19133,38053 -6720,11751 -13528,21774 -20412,30073 -6887,8294 -13534,13053 -19943,14279 -9617,1839 -18155,1067 -25615,-2328 -7461,-3388 -13294,-9997 -17499,-19826 -4208,-9826 -6561,-22999 -7065,-39516 -500,-16517 1049,-36828 5308,-60825 7175,-40415 21203,-90945 26080,-128992 -13446,-1418 -26365,-3711 -38759,-6881 -12395,-3166 -24434,-6124 -36132,-8873 -11684,-2748 -23100,-4674 -34237,-5772 -11131,-1099 -22027,-330 -32676,2318 -12610,3138 -22930,6520 -30954,10149 -8018,3635 -14490,6950 -19396,9959 -4905,3005 -8568,5627 -10991,7865 -2419,2236 -4468,3563 -6146,3978 -1964,490 -4164,-301 -6619,-2369 -2444,-2071 -4366,-5906 -5760,-11511 -557,-2242 -256,-6707 909,-13398 1162,-6681 3977,-13926 8430,-21732 4465,-7803 11077,-15326 19839,-22559 8765,-7236 20434,-12670 35007,-16289 10085,-2511 21330,-2774 33724,-798 12391,1979 25570,5028 39538,9142 13972,4113 28427,8705 43374,13772 14946,5060 30260,9211 45944,12451zm85378 -53358c-3081,767 -5934,3040 -8569,6821 -2631,3775 -4984,8376 -7061,13803 -2071,5425 -3952,11324 -5646,17695 -1682,6368 -3233,12708 -4646,19010l5045 -1254c8971,-2230 16330,-6739 22081,-13525 5757,-6783 9718,-13569 11903,-20364 2182,-6787 2220,-12600 120,-17439 -2087,-4832 -6501,-6416 -13227,-4747z"/>
   <path class="fil1 str0" d="M396355 1060201c-646,951 -2166,1655 -4560,2113 -3459,662 -8040,504 -13742,-473 -5704,-977 -11239,-2883 -16608,-5716 -5369,-2835 -9905,-6724 -13609,-11669 -3704,-4946 -5288,-11055 -4748,-18328 289,-2814 1161,-8703 2617,-17670 1456,-8966 3339,-19669 5647,-32107 2309,-12439 4866,-26098 7674,-40976 2807,-14879 5680,-29769 8621,-44673 6724,-35485 14383,-74735 22976,-117748 164,-583 462,-1192 892,-1826 861,-1268 1956,-2029 3286,-2283 2129,-408 4543,-42 7243,1096 2700,1138 5397,2621 8091,4451 2695,1828 5189,3695 7484,5600 2295,1906 4127,3554 5497,4947 5428,5305 8198,10774 8310,16406 113,5632 -412,11179 -1573,16641 -63,1116 -577,3834 -1542,8156 -966,4322 -2048,9837 -3246,16548 -1198,6711 -2564,14349 -4096,22916 -1533,8568 -3188,17571 -4968,27013 5412,896 11443,707 18095,-566 12239,-2341 22780,-8151 31623,-17427 8843,-9276 16037,-19962 21584,-32054 5546,-12093 9315,-24467 11307,-37121 1992,-12653 2122,-23503 391,-32549 -3207,-16762 -9762,-28677 -19664,-35746 -9902,-7069 -20573,-9509 -32014,-7320 -13036,2495 -24555,6078 -34555,10750 -10000,4670 -18758,10069 -26273,16196 -7515,6126 -13998,12607 -19447,19442 -5449,6833 -9983,13768 -13601,20804 -8793,16024 -14278,33483 -16455,52378 -1330,254 -4292,269 -8886,46 -4593,-225 -9548,-1621 -14867,-4189 -5317,-2568 -10421,-6901 -15311,-12997 -4890,-6098 -8404,-14734 -10542,-25908 -2138,-11174 295,-22602 7299,-34284 7004,-11683 16923,-22544 29757,-32584 12834,-10041 27623,-18868 44368,-26485 16745,-7617 33765,-13079 51058,-16388 16230,-3105 31476,-3059 45741,142 14265,3200 26968,8698 38113,16495 11145,7797 20479,17662 28003,29599 7524,11937 12661,25089 15410,39455 2749,14367 1734,29247 -3043,44640 -4777,15394 -12041,29677 -21794,42851 -9752,13174 -21375,24499 -34868,33975 -13494,9477 -27690,15640 -42589,18491 -1863,357 -3605,621 -5226,794 -1622,171 -3124,252 -4504,240 3474,3748 8109,8515 13905,14301 5795,5786 12479,11886 20049,18297 7569,6412 15726,12642 24467,18692 8743,6050 17823,11345 27241,15886 9419,4542 18953,7889 28604,10040 9652,2153 19000,2364 28046,633 7184,-1375 13191,-3489 18023,-6344 4832,-2855 8760,-5745 11786,-8667 3027,-2924 5425,-5520 7198,-7790 1772,-2269 3057,-3480 3854,-3633 1597,-305 3182,770 4756,3227 1572,2457 2715,5547 3428,9272 1324,6917 1466,13785 426,20604 -1040,6818 -3658,13317 -7853,19498 -4195,6181 -10190,11602 -17986,16266 -7795,4663 -17679,8139 -29652,10430 -11174,2138 -22668,1166 -34480,-2917 -11813,-4083 -23413,-9931 -34798,-17543 -11385,-7612 -22296,-16349 -32732,-26212 -10438,-9862 -19812,-19583 -28127,-29162 -8314,-9579 -15373,-18364 -21176,-26355 -5804,-7990 -9753,-13854 -11846,-17590 -1677,9974 -3393,19747 -5146,29322 -1754,9575 -3315,18354 -4682,26339 -1369,7983 -2583,14973 -3642,20967 -1059,5995 -1866,10424 -2422,13288 -958,6527 -1162,11944 -614,16251 548,4308 1223,7833 2024,10576 800,2743 1541,4808 2219,6195 679,1386 804,2397 374,3031z"/>
   <path class="fil1" d="M631045 753842c11705,-2239 21216,-2266 28529,-79 7313,2185 13141,5621 17485,10305 4344,4685 7630,10330 9860,16937 2229,6606 3980,13235 5252,19886 2189,11441 2368,23542 534,36304 -1832,12761 -4069,24496 -6708,35206 5406,-4895 10156,-10700 14250,-17412 4094,-6713 7535,-13233 10323,-19558 2789,-6326 4999,-11713 6630,-16162 1631,-4449 2579,-6699 2845,-6750 748,-418 2034,-181 3859,711 1826,892 3648,2128 5468,3710 1820,1582 3386,3282 4699,5100 1313,1818 1697,3468 1154,4950 -1037,3233 -2670,8026 -4901,14383 -2232,6356 -5568,13063 -10010,20118 -4441,7055 -10090,13928 -16946,20617 -6856,6690 -15561,12010 -26112,15960 -3529,8948 -7823,17493 -12885,25632 -5062,8139 -10687,15489 -16879,22052 -6190,6563 -12917,12124 -20180,16686 -7264,4561 -15020,7631 -23267,9209 -3192,611 -7431,802 -12715,572 -5285,-230 -10585,-1630 -15903,-4197 -5318,-2569 -10291,-6581 -14921,-12039 -4630,-5457 -7886,-13107 -9770,-22952 -1374,-7184 -1909,-14665 -1606,-22446 305,-7780 1296,-15209 2976,-22288 1679,-7078 4046,-13806 7102,-20181 3054,-6377 6645,-11753 10772,-16127 -3441,-7892 -4494,-16999 -3159,-27320 1335,-10322 4659,-20335 9973,-30040 5314,-9704 12558,-18329 21732,-25877 9174,-7546 20013,-12517 32519,-14910zm-25817 85610c3979,619 7423,1683 10332,3195 2910,1512 5234,3204 6971,5078 2003,1823 3633,3856 4890,6098 -1178,1052 -2462,2264 -3856,3633 -1126,1319 -2480,2888 -4064,4708 -1582,1819 -3233,3997 -4954,6532 5427,5306 11954,9504 19577,12595 7624,3093 16144,4013 25557,2764 4525,-13828 7869,-27706 10030,-41634 2162,-13927 2326,-25680 494,-35258 -459,-2394 -1082,-5653 -1871,-9777 -789,-4125 -1964,-8106 -3526,-11943 -1561,-3839 -3554,-7043 -5976,-9613 -2423,-2570 -5496,-3499 -9221,-2787 -6652,1273 -12639,4212 -17964,8815 -5324,4605 -9859,10092 -13605,16462 -3745,6371 -6724,13146 -8935,20327 -2212,7179 -3505,14115 -3879,20805zm4424 109610c9844,-1884 18108,-6980 24791,-15292 6684,-8312 12650,-18210 17900,-29694 -15205,1253 -31776,-2471 -49713,-11174 -1693,5564 -2832,11505 -3416,17822 -584,6318 -214,12935 1109,19852 2495,13037 5605,19198 9329,18486z"/>
   <path class="fil1" d="M783051 854246c2555,-6831 5188,-13610 7900,-20333 2712,-6725 5181,-12920 7407,-18586 2338,-6515 4703,-12897 7092,-19146 3499,986 6465,2073 8899,3261 2383,924 4364,2269 5943,4034 1579,1767 1907,3842 984,6224 -544,1484 -2055,5841 -4532,13072 -2478,7230 -5658,15837 -9539,25819 -3882,9982 -8327,20623 -13336,31923 -5008,11301 -10303,21830 -15882,31585 -5580,9754 -11228,18075 -16943,24960 -5716,6886 -11234,10837 -16555,11855 -7981,1527 -15069,884 -21261,-1930 -6192,-2814 -11034,-8300 -14525,-16457 -3492,-8159 -5446,-19092 -5863,-32802 -417,-13710 1052,-30539 4406,-50486 4085,-24776 8266,-48329 12543,-70660 4277,-22329 8227,-42046 11850,-59149 3622,-17103 6819,-31022 9591,-41757 2773,-10735 4539,-17002 5297,-18802 544,-1483 1614,-2377 3211,-2682 2445,-193 5961,168 10549,1083 4588,915 9119,2255 13593,4018 4475,1765 8335,3922 11581,6472 3246,2551 4750,5365 4511,8445 -112,849 -1024,5091 -2735,12728 -1711,7635 -3907,17778 -6589,30425 -2683,12649 -5807,27312 -9372,43990 -3566,16679 -7210,34751 -10932,54218 -2600,12356 -4696,24823 -6288,37401 -1593,12577 -2803,23909 -3631,33997 -828,10087 -1309,18383 -1443,24890 -134,6508 115,9975 750,10406 317,215 1567,-1541 3749,-5268 2183,-3727 4881,-8725 8094,-14994 3213,-6268 6715,-13557 10503,-21866 3788,-8309 7445,-16938 10973,-25888z"/>
   <path class="fil1" d="M852278 904710c2926,-560 6125,-1861 9596,-3905 3470,-2042 7009,-4443 10618,-7203 3609,-2758 7101,-5771 10476,-9036 3373,-3266 6162,-6351 8364,-9254 7417,-10244 14564,-21541 21440,-33888 6877,-12348 12991,-23998 18342,-34951 6160,-12486 12003,-25187 17530,-38104 3499,985 6489,2206 8974,3661 2118,974 3965,2344 5544,4110 1579,1767 1907,3841 984,6224 -164,583 -1276,3416 -3338,8499 -2061,5083 -4903,11488 -8527,19214 -3624,7726 -7960,16416 -13008,26069 -5047,9653 -10732,19222 -17054,28705 -6321,9484 -13156,18445 -20505,26883 -7349,8440 -15031,15494 -23048,21165 -3900,2676 -8808,5133 -14724,7368 -5916,2235 -12997,4142 -21245,5720 -1596,305 -4853,583 -9769,834 -4915,251 -10128,-682 -15635,-2799 -5508,-2118 -10855,-5922 -16042,-11411 -5187,-5488 -8875,-13953 -11064,-25393 -2545,-13303 -3124,-26775 -1734,-40417 1388,-13641 4143,-26993 8262,-40055 4120,-13061 9404,-25448 15850,-37161 6447,-11715 13559,-22107 21338,-31180 7779,-9074 15918,-16629 24415,-22667 8497,-6038 16737,-9821 24718,-11348 4789,-917 9452,-1051 13989,-402 4537,648 8763,1839 12681,3572 3916,1733 7204,4138 9860,7215 2658,3077 4369,6610 5132,10601 3054,15964 2737,30159 -953,42586 -3690,12428 -9171,23060 -16443,31897 -7272,8838 -15500,15929 -24682,21271 -9182,5343 -17764,8777 -25746,10305 -2926,560 -5492,843 -7697,851 -2205,9 -4422,-49 -6653,-175 -1728,9708 -2762,19076 -3103,28104 -341,9029 -62,16974 837,23835 899,6860 2329,12172 4289,15934 1961,3761 4538,5337 7731,4726zm-5132 -91685c4953,-1500 11138,-4131 18554,-7895 7416,-3762 13997,-9366 19744,-16808 5531,-7126 9532,-13960 12004,-20500 2472,-6540 3928,-12265 4367,-17176 440,-4911 47,-8765 -1178,-11565 -1225,-2800 -2769,-4020 -4631,-3664 -4523,865 -9114,3536 -13774,8013 -4659,4477 -9089,10151 -13291,17022 -4200,6871 -8198,14807 -11992,23807 -3794,8999 -7062,18588 -9803,28766z"/>
   <path class="fil1" d="M921925 639553c1008,1319 2207,4227 3597,8724 1390,4495 2798,9291 4227,14385 1427,5094 2655,9735 3684,13922 1028,4188 1611,6646 1751,7376 139,728 -811,1289 -2853,1680 -1167,223 -2545,335 -4132,336 -1587,1 -3202,-143 -4844,-433 -1643,-291 -3191,-676 -4644,-1153 -1451,-478 -2639,-1158 -3565,-2040 -1007,-1319 -1928,-3562 -2761,-6727 -832,-3168 -1570,-6428 -2212,-9783 -635,-4111 -1166,-8470 -1594,-13074 -1561,2113 -3254,4326 -5080,6640 -1414,2085 -3007,4431 -4776,7037 -1769,2607 -3510,5360 -5224,8257 -4668,7999 -7814,14270 -9439,18814 -1625,4545 -3168,6957 -4625,7235 -1313,252 -2840,-23 -4581,-824 -1740,-801 -3500,-1900 -5280,-3299 -1779,-1398 -3433,-2933 -4963,-4606 -1529,-1673 -2667,-3269 -3411,-4791 -543,-1256 -132,-3451 1235,-6585 1365,-3133 3339,-6649 5919,-10544 2580,-3896 5512,-7933 8795,-12115 3281,-4180 6510,-8049 9684,-11604 3176,-3556 6047,-6524 8615,-8905 2569,-2381 4436,-3684 5603,-3907 3500,-669 7393,-470 11680,600 4286,1069 7351,2864 9194,5384z"/>
   <path class="fil1" d="M664002 1050537c25257,-28833 237778,-108683 349123,-99337 13150,1104 21925,4328 26510,7879 4592,3550 5896,7172 3925,10871 -1980,3701 -5253,5877 -9820,6527 -3578,465 -9598,2833 -18147,2146 -140923,-11260 -285650,70849 -340979,85326 -4423,1160 -7803,-3374 -10428,-5641 -2625,-2267 -2718,-4885 -184,-7771z"/>
   <path class="fil3" d="M957306 221131c776,-6435 2331,-13968 4655,-22578 2321,-8610 5586,-17015 9807,-25197 4208,-8195 9731,-15592 16571,-22204 6843,-6606 15162,-11128 24972,-13566 11488,-2863 21523,-3490 30102,-1903 8578,1586 15807,4325 21685,8220 5880,3895 10510,8474 13901,13728 3388,5259 5678,10269 6859,15035 3138,12612 3433,23695 899,33249 -2533,9557 -6817,17765 -12850,24624 -6029,6849 -13322,12536 -21875,17042 -8553,4503 -17309,7869 -26273,10102 -2809,693 -5555,1305 -8249,1827 -2701,519 -5485,988 -8360,1403 -396,3176 -1368,6704 -2524,10580 -5766,26976 -11343,53924 -16523,81024 -3135,14886 -5656,29905 -7578,45058 -1916,15152 -3376,28806 -4373,40960 -998,12153 -1577,22147 -1739,29988 -161,7837 140,12014 903,12533 383,263 1890,-1856 4519,-6346 2628,-4490 5880,-10510 9753,-18062 3866,-7553 8087,-16334 12650,-26343 4563,-10010 8971,-20406 13221,-31188 3078,-8230 6248,-16397 9519,-24500 3265,-8101 6241,-15564 8920,-22388 2819,-7850 5668,-15539 8547,-23069 4212,1187 7787,2495 10719,3933 2872,1108 5260,2729 7163,4857 1900,2128 2296,4630 1181,7499 -656,1786 -2473,7036 -5459,15744 -2983,8712 -6815,19082 -11492,31109 -4674,12027 -10029,24849 -16067,38459 -6030,13616 -12410,26298 -19133,38053 -6720,11751 -13528,21774 -20412,30073 -6887,8294 -13534,13053 -19943,14279 -9617,1839 -18155,1067 -25615,-2328 -7461,-3388 -13294,-9997 -17499,-19826 -3203,-7478 -5331,-16895 -6387,-28249 -4657,10326 -9470,20073 -14441,29244 -6630,12234 -13438,22673 -20422,31320 -6985,8646 -13683,13582 -20093,14809 -14745,2821 -26354,-1852 -34830,-14020 -8474,-12167 -12485,-30090 -12031,-53767 -4420,8155 -9210,16548 -14372,25178 -5160,8629 -10603,16648 -16329,24057 -5726,7408 -11667,13695 -17823,18860 -6155,5165 -12117,8299 -17887,9403 -8333,1595 -15324,-639 -20969,-6703 -5646,-6063 -9767,-14579 -12364,-25545 -835,-3527 -1538,-7260 -2108,-11199 -4512,9818 -9161,19145 -13949,27976 -6631,12234 -13358,22659 -20182,31275 -6825,8615 -13442,13536 -19852,14762 -13142,2515 -23908,-1655 -32298,-12510 -8390,-10855 -13654,-26211 -15792,-46071 -8719,16952 -17675,31791 -26869,44515 -9195,12724 -17960,19883 -26294,21477 -5769,1104 -11941,541 -18514,-1689 -6575,-2232 -12515,-5497 -17824,-9798 -5308,-4301 -9683,-9362 -13122,-15183 -3439,-5820 -5101,-11898 -4983,-18234 -13,-13954 1005,-28602 3054,-43945 2048,-15345 4653,-30379 7817,-45106 3163,-14727 6464,-28732 9903,-42015 5889,-23057 12670,-45785 20346,-68187 1159,-887 2541,-1483 4144,-1790 3205,-613 7300,-483 12285,391 4985,873 9822,2274 14509,4202 4689,1927 8831,4041 12429,6343 3596,2302 5449,4606 5558,6911 47,1985 -2479,11356 -7579,28115 -5101,16758 -10960,38231 -17578,64417 -4109,16734 -6970,31735 -8584,45003 -1616,13267 -2541,24492 -2777,33675 -238,9182 55,16353 876,21513 820,5158 1613,7997 2377,8516 703,197 3127,-2758 7274,-8868 4148,-6110 8901,-13830 14258,-23163 5359,-9332 10964,-19541 16817,-30629 5853,-11088 10485,-21610 13896,-31566 519,-764 797,-1482 834,-2154 38,-671 316,-1389 835,-2153 334,-1724 718,-3625 1151,-5702 433,-2076 818,-3977 1151,-5703 5309,-22613 10724,-42505 16243,-59675 5521,-17172 10825,-31560 15914,-43167 5621,-14034 11130,-26052 16525,-36056 1160,-886 2220,-1422 3182,-1606 2885,-551 6816,26 11794,1731 4979,1706 9842,3683 14592,5930 4749,2248 8938,4604 12565,7066 3628,2462 5695,4144 6199,5044 565,1220 92,4385 -1424,9492 -1514,5108 -3780,11938 -6794,20488 -3016,8553 -6573,18619 -10670,30202 -4096,11582 -8475,24298 -13135,38149 -4659,13849 -8312,27755 -10956,41718 -2645,13963 -4447,26685 -5407,38165 -960,11481 -1391,20950 -1294,28407 99,7458 530,11446 1293,11964 382,259 1971,-2288 4768,-7641 2797,-5353 6199,-12317 10207,-20892 4007,-8575 8313,-18204 12914,-28886 4601,-10683 9027,-21413 13277,-32195 2576,-6890 5218,-13734 7927,-20532 298,-2104 621,-4216 966,-6337 2598,-15948 6458,-31805 11582,-47570 5124,-15767 11516,-30114 19177,-43043 7659,-12929 16440,-23913 26340,-32950 9900,-9039 20940,-14723 33120,-17053 8334,-1595 15375,-1696 21123,-304 5749,1392 10515,3720 14295,6984 3781,3263 6869,7241 9261,11934 2394,4692 4111,9762 5154,15211 1890,-4016 3470,-7475 4742,-10377 1272,-2901 2557,-5307 3853,-7216 1235,-2230 2371,-4108 3407,-5636 259,-381 1030,-695 2313,-940 2563,-491 5968,-63 10213,1285 4245,1347 8456,2951 12633,4810 4177,1858 7807,3905 10893,6139 3086,2234 4881,3801 5385,4701 504,900 380,2420 -374,4557 -754,2138 -2079,5631 -3975,10479 -1897,4849 -4433,11564 -7609,20146 -3176,8583 -7254,19829 -12234,33740 -4661,13850 -8282,27917 -10866,42200 -2582,14284 -4450,27100 -5600,38452 -1151,11351 -1597,20739 -1340,28166 258,7427 769,11400 1533,11917 382,260 1971,-2287 4768,-7640 2797,-5353 6199,-12317 10207,-20892 4008,-8575 8298,-18284 12869,-29126 4569,-10843 8980,-21655 13231,-32436 3138,-7910 6341,-15916 9608,-24017 1532,-3798 2999,-7454 4402,-10971 7513,-38570 19772,-84215 24265,-119265 -13446,-1418 -26365,-3711 -38759,-6881 -12395,-3166 -24434,-6124 -36132,-8873 -11684,-2748 -23100,-4674 -34237,-5772 -11131,-1099 -22027,-330 -32676,2318 -12610,3138 -22930,6520 -30954,10149 -8018,3635 -14490,6950 -19396,9959 -4905,3005 -8568,5627 -10991,7865 -2419,2236 -4468,3563 -6146,3978 -1964,490 -4164,-301 -6619,-2369 -2444,-2071 -4366,-5906 -5760,-11511 -557,-2242 -256,-6707 909,-13398 1162,-6681 3977,-13926 8430,-21732 4465,-7803 11077,-15326 19839,-22559 8765,-7236 20434,-12670 35007,-16289 10085,-2511 21330,-2774 33724,-798 12391,1979 25570,5028 39538,9142 13972,4113 28427,8705 43374,13772 14946,5060 30260,9211 45944,12451zm-613528 413529c-7263,3716 -15061,6370 -23395,7965 -9296,1778 -19123,2081 -29482,907 -10359,-1176 -20063,-4137 -29111,-8885 -9050,-4747 -17089,-11598 -24119,-20554 -7029,-8955 -11863,-20324 -14500,-34106 -2208,-11540 -2066,-24692 425,-39455 2492,-14765 6456,-29645 11894,-44640 -3833,-928 -7707,-2513 -11625,-4754 -3918,-2240 -7618,-5519 -11103,-9837 -3484,-4317 -6592,-9704 -9322,-16159 -2730,-6455 -4984,-14330 -6763,-23626 -2024,-10577 -1973,-22465 154,-35664 2126,-13200 6000,-26815 11621,-40850 5622,-14033 12842,-27958 21662,-41773 8820,-13816 19022,-26483 30607,-38003 11584,-11520 24388,-21446 38410,-29778 14023,-8331 28887,-14000 44593,-17005 19874,-3802 37361,-3576 52462,678 15101,4255 28209,11549 39324,21882 11114,10334 20223,23210 27327,38630 7104,15421 12464,32586 16083,51498 3128,16347 2965,35898 -489,58655 -3454,22757 -9472,46004 -18055,69742 -8583,23738 -19464,46751 -32643,69043 -13178,22292 -27737,41275 -43677,56951 6491,4407 13650,7523 21475,9348 7825,1825 16706,1787 26642,-114 6091,-1165 11192,-2723 15305,-4672 4112,-1950 7713,-3969 10803,-6054 3089,-2087 5633,-3986 7632,-5697 1998,-1712 3959,-2751 5882,-3119 3526,-675 7556,-449 12091,677 4535,1126 8746,2729 12632,4809 3887,2081 6908,4410 9063,6988 2155,2579 2455,5013 898,7304 -517,764 -2492,3467 -5923,8111 -3431,4644 -8323,9899 -14676,15767 -6354,5867 -14467,11656 -24338,17366 -9873,5710 -21541,9852 -35002,12428 -18912,3619 -35107,1899 -48584,-5158 -13479,-7056 -24871,-16672 -34178,-28846zm-51266 -23086c4166,-797 8599,-2808 13299,-6033 4699,-3225 9565,-7312 14599,-12262 -3197,-8028 -5788,-15922 -7770,-23683 -1984,-7761 -3559,-14686 -4724,-20777 -1165,-6090 -1875,-11104 -2130,-15042 -255,-3938 -253,-6098 5,-6481 1419,-1268 3571,-2178 6456,-2730 3526,-674 7671,-720 12434,-137 4763,585 7871,2067 9323,4447 887,1160 2328,4787 4326,10885 1997,6097 5075,13067 9234,20910 10948,-15718 21466,-33679 31556,-53884 10088,-20205 18632,-41111 25628,-62718 6997,-21607 12009,-43166 15037,-64678 3027,-21513 2793,-41403 -703,-59674 -1288,-6730 -2628,-12870 -4022,-18418 -1393,-5549 -3451,-10221 -6171,-14021 -2721,-3798 -6315,-6516 -10781,-8154 -4466,-1637 -10226,-1781 -17277,-432 -4488,859 -10718,3463 -18691,7813 -7972,4349 -16517,10054 -25632,17115 -9116,7059 -18321,15384 -27617,24971 -9297,9586 -17498,20126 -24602,31620 -7104,11493 -12647,23767 -16629,36823 -3981,13056 -5133,26567 -3458,40534 4468,-6171 8750,-11144 12846,-14917 4095,-3774 7906,-5999 11431,-6674 7052,-1349 13196,-1362 18434,-38 5238,1324 9574,3152 13011,5485 4459,2469 8210,5572 11251,9311 -12810,16405 -23832,33467 -33069,51182 -3902,7392 -7616,15329 -11143,23813 -3527,8483 -6417,17260 -8668,26329 -2252,9070 -3752,18162 -4501,27276 -747,9114 -263,18159 1454,27134 1350,7051 3523,13199 6519,18440 2996,5241 6578,7463 10745,6665zm553161 -252855c103,-4671 -51,-9377 -459,-14117 -408,-4740 -1045,-8937 -1911,-12592 -865,-3656 -2154,-6483 -3865,-8481 -1712,-1998 -4010,-2722 -6894,-2170 -6091,1165 -12280,6586 -18569,16262 -6290,9677 -12130,21261 -17523,34753 -5393,13491 -10251,28044 -14574,43656 -4322,15612 -7657,29874 -10005,42784 -2348,12909 -3461,23587 -3340,32037 122,8450 1625,12399 4510,11847 2243,-430 5467,-3123 9668,-8080 4202,-4957 8780,-10984 13736,-18079 4955,-7094 9914,-14606 14877,-22533 4962,-7927 9326,-15075 13091,-21444 1502,-11252 4423,-23773 8762,-37561 4339,-13789 8505,-25882 12496,-36282zm197011 -190946c-3081,767 -5934,3040 -8569,6821 -2631,3775 -4984,8376 -7061,13803 -2071,5425 -3952,11324 -5646,17695 -1682,6368 -3233,12708 -4646,19010l5045 -1254c8971,-2230 16330,-6739 22081,-13525 5757,-6783 9718,-13569 11903,-20364 2182,-6787 2220,-12600 120,-17439 -2087,-4832 -6501,-6416 -13227,-4747z"/>
   <path class="fil4" d="M994734 772709c-707,-3696 -449,-8535 773,-14516 1221,-5981 3209,-12673 5963,-20074 2754,-7401 6379,-15251 10877,-23549 4497,-8298 9689,-16504 15575,-24617 5006,-6818 10235,-14243 15685,-22272 5451,-8030 10456,-16030 15016,-24003 4560,-7972 8173,-15594 10839,-22866 2666,-7271 3618,-13483 2858,-18634 -761,-5151 -3606,-8832 -8537,-11044 -4930,-2212 -12724,-2299 -23377,-261 -14568,2788 -26564,6942 -35987,12464 -9424,5522 -16943,11582 -22555,18177 -5613,6596 -9718,13410 -12317,20444 -2598,7033 -4420,13411 -5466,19133 -1047,5722 -1661,10460 -1845,14215 -183,3753 -710,5714 -1579,5880 -1305,250 -3356,134 -6151,-345 -2797,-479 -5783,-1654 -8959,-3526 -3175,-1872 -6157,-4794 -8946,-8768 -2789,-3975 -4807,-9223 -6055,-15746 -1290,-6741 -716,-14344 1721,-22812 2436,-8467 7315,-16838 14634,-25113 7319,-8275 17521,-15917 30604,-22929 13083,-7011 29735,-12451 49957,-16320 6957,-1331 14602,-1723 22933,-1176 8332,547 16283,2350 23855,5409 7573,3059 14199,7652 19878,13777 5680,6125 9435,13971 11265,23539 1872,9783 1155,18993 -2151,27626 -3307,8635 -8028,17821 -14166,27561 -6139,9739 -13078,20589 -20819,32550 -7741,11962 -15198,26293 -22371,42991 -3410,8090 -5851,15656 -7320,22699 -1470,7044 -2497,13157 -3084,18339 -585,5184 -924,9306 -1014,12366 -92,3060 -680,4694 -1767,4902 -2392,457 -5602,170 -9631,-862 -4030,-1032 -7999,-2639 -11910,-4820 -3912,-2182 -7460,-4827 -10647,-7937 -3187,-3109 -5114,-6403 -5779,-9882zm-613379 270492c-646,951 -2166,1655 -4560,2113 -3459,662 -8040,504 -13742,-473 -5704,-977 -11239,-2883 -16608,-5716 -5369,-2835 -9905,-6724 -13609,-11669 -3704,-4946 -5288,-11055 -4748,-18328 289,-2814 1161,-8703 2617,-17670 1456,-8966 3339,-19669 5647,-32107 2309,-12439 4866,-26098 7674,-40976 2807,-14879 5680,-29769 8621,-44673 6724,-35485 14383,-74735 22976,-117748 164,-583 462,-1192 892,-1826 861,-1268 1956,-2029 3286,-2283 2129,-408 4543,-42 7243,1096 2700,1138 5397,2621 8091,4451 2695,1828 5189,3695 7484,5600 2295,1906 4127,3554 5497,4947 5428,5305 8198,10774 8310,16406 113,5632 -412,11179 -1573,16641 -63,1116 -577,3834 -1542,8156 -966,4322 -2048,9837 -3246,16548 -1198,6711 -2564,14349 -4096,22916 -1533,8568 -3188,17571 -4968,27013 5412,896 11443,707 18095,-566 12239,-2341 22780,-8151 31623,-17427 8843,-9276 16037,-19962 21584,-32054 5546,-12093 9315,-24467 11307,-37121 1992,-12653 2122,-23503 391,-32549 -3207,-16762 -9762,-28677 -19664,-35746 -9902,-7069 -20573,-9509 -32014,-7320 -13036,2495 -24555,6078 -34555,10750 -10000,4670 -18758,10069 -26273,16196 -7515,6126 -13998,12607 -19447,19442 -5449,6833 -9983,13768 -13601,20804 -8793,16024 -14278,33483 -16455,52378 -1330,254 -4292,269 -8886,46 -4593,-225 -9548,-1621 -14867,-4189 -5317,-2568 -10421,-6901 -15311,-12997 -4890,-6098 -8404,-14734 -10542,-25908 -2138,-11174 295,-22602 7299,-34284 7004,-11683 16923,-22544 29757,-32584 12834,-10041 27623,-18868 44368,-26485 16745,-7617 33765,-13079 51058,-16388 16230,-3105 31476,-3059 45741,142 14265,3200 26968,8698 38113,16495 11145,7797 20479,17662 28003,29599 7524,11937 12661,25089 15410,39455 2749,14367 1734,29247 -3043,44640 -4777,15394 -12041,29677 -21794,42851 -9752,13174 -21375,24499 -34868,33975 -13494,9477 -27690,15640 -42589,18491 -1863,357 -3605,621 -5226,794 -1622,171 -3124,252 -4504,240 3474,3748 8109,8515 13905,14301 5795,5786 12479,11886 20049,18297 7569,6412 15726,12642 24467,18692 8743,6050 17823,11345 27241,15886 9419,4542 18953,7889 28604,10040 9652,2153 19000,2364 28046,633 7184,-1375 13191,-3489 18023,-6344 4832,-2855 8760,-5745 11786,-8667 3027,-2924 5425,-5520 7198,-7790 1772,-2269 3057,-3480 3854,-3633 1597,-305 3182,770 4756,3227 1572,2457 2715,5547 3428,9272 1324,6917 1466,13785 426,20604 -1040,6818 -3658,13317 -7853,19498 -4195,6181 -10190,11602 -17986,16266 -7795,4663 -17679,8139 -29652,10430 -11174,2138 -22668,1166 -34480,-2917 -11813,-4083 -23413,-9931 -34798,-17543 -11385,-7612 -22296,-16349 -32732,-26212 -10438,-9862 -19812,-19583 -28127,-29162 -8314,-9579 -15373,-18364 -21176,-26355 -5804,-7990 -9753,-13854 -11846,-17590 -1677,9974 -3393,19747 -5146,29322 -1754,9575 -3315,18354 -4682,26339 -1369,7983 -2583,14973 -3642,20967 -1059,5995 -1866,10424 -2422,13288 -958,6527 -1162,11944 -614,16251 548,4308 1223,7833 2024,10576 800,2743 1541,4808 2219,6195 679,1386 804,2397 374,3031zm234690 -306359c11705,-2239 21216,-2266 28529,-79 7313,2185 13141,5621 17485,10305 4344,4685 7630,10330 9860,16937 2229,6606 3980,13235 5252,19886 2189,11441 2368,23542 534,36304 -1832,12761 -4069,24496 -6708,35206 5406,-4895 10156,-10700 14250,-17412 3108,-5096 5840,-10082 8195,-14955 3704,-22148 7487,-43299 11347,-63455 4277,-22329 8227,-42046 11850,-59149 3622,-17103 6819,-31022 9591,-41757 2773,-10735 4539,-17002 5297,-18802 544,-1483 1614,-2377 3211,-2682 2445,-193 5961,168 10549,1083 4588,915 9119,2255 13593,4018 4475,1765 8335,3922 11581,6472 3246,2551 4750,5365 4511,8445 -112,849 -1024,5091 -2735,12728 -1711,7635 -3907,17778 -6589,30425 -2683,12649 -5807,27312 -9372,43990 -3566,16679 -7210,34751 -10932,54218 -2600,12356 -4696,24823 -6288,37401 -1593,12577 -2803,23909 -3631,33997 -828,10087 -1309,18383 -1443,24890 -134,6508 115,9975 750,10406 317,215 1567,-1541 3749,-5268 2183,-3727 4881,-8725 8094,-14994 3213,-6268 6715,-13557 10503,-21866 3788,-8309 7445,-16938 10973,-25888 2154,-5759 4365,-11481 6630,-17164 1553,-10280 3898,-20392 7034,-30336 4120,-13061 9404,-25448 15850,-37161 6447,-11715 13559,-22107 21338,-31180 7779,-9074 15918,-16629 24415,-22667 8497,-6038 16737,-9821 24718,-11348 4789,-917 9452,-1051 13989,-402 4537,648 8763,1839 12681,3572 3916,1733 7204,4138 9860,7215 2658,3077 4369,6610 5132,10601 3054,15964 2737,30159 -953,42586 -3690,12428 -9171,23060 -16443,31897 -7272,8838 -15500,15929 -24682,21271 -9182,5343 -17764,8777 -25746,10305 -2926,560 -5492,843 -7697,851 -2205,9 -4422,-49 -6653,-175 -1728,9708 -2762,19076 -3103,28104 -341,9029 -62,16974 837,23835 899,6860 2329,12172 4289,15934 1961,3761 4538,5337 7731,4726 2926,-560 6125,-1861 9596,-3905 3470,-2042 7009,-4443 10618,-7203 3609,-2758 7101,-5771 10476,-9036 3373,-3266 6162,-6351 8364,-9254 7417,-10244 14564,-21541 21440,-33888 6877,-12348 12991,-23998 18342,-34951 6160,-12486 12003,-25187 17530,-38104 3499,985 6489,2206 8974,3661 2118,974 3965,2344 5544,4110 1579,1767 1907,3841 984,6224 -164,583 -1276,3416 -3338,8499 -2061,5083 -4903,11488 -8527,19214 -3624,7726 -7960,16416 -13008,26069 -5047,9653 -10732,19222 -17054,28705 -6321,9484 -13156,18445 -20505,26883 -7349,8440 -15031,15494 -23048,21165 -3900,2676 -8808,5133 -14724,7368 -5916,2235 -12997,4142 -21245,5720 -1596,305 -4853,583 -9769,834 -4915,251 -10128,-682 -15635,-2799 -5508,-2118 -10855,-5922 -16042,-11411 -5042,-5334 -8667,-13481 -10876,-24438 -3960,8434 -8089,16410 -12388,23926 -5580,9754 -11228,18075 -16943,24960 -5716,6886 -11234,10837 -16555,11855 -7981,1527 -15069,884 -21261,-1930 -6192,-2814 -11034,-8300 -14525,-16457 -3492,-8159 -5446,-19092 -5863,-32802 -144,-4741 -62,-9855 245,-15342 -6812,6562 -15423,11789 -25829,15685 -3529,8948 -7823,17493 -12885,25632 -5062,8139 -10687,15489 -16879,22052 -6190,6563 -12917,12124 -20180,16686 -7264,4561 -15020,7631 -23267,9209 -3192,611 -7431,802 -12715,572 -5285,-230 -10585,-1630 -15903,-4197 -5318,-2569 -10291,-6581 -14921,-12039 -4630,-5457 -7886,-13107 -9770,-22952 -1374,-7184 -1909,-14665 -1606,-22446 305,-7780 1296,-15209 2976,-22288 1679,-7078 4046,-13806 7102,-20181 3054,-6377 6645,-11753 10772,-16127 -3441,-7892 -4494,-16999 -3159,-27320 1335,-10322 4659,-20335 9973,-30040 5314,-9704 12558,-18329 21732,-25877 9174,-7546 20013,-12517 32519,-14910zm-25817 85610c3979,619 7423,1683 10332,3195 2910,1512 5234,3204 6971,5078 2003,1823 3633,3856 4890,6098 -1178,1052 -2462,2264 -3856,3633 -1126,1319 -2480,2888 -4064,4708 -1582,1819 -3233,3997 -4954,6532 5427,5306 11954,9504 19577,12595 7624,3093 16144,4013 25557,2764 4525,-13828 7869,-27706 10030,-41634 2162,-13927 2326,-25680 494,-35258 -459,-2394 -1082,-5653 -1871,-9777 -789,-4125 -1964,-8106 -3526,-11943 -1561,-3839 -3554,-7043 -5976,-9613 -2423,-2570 -5496,-3499 -9221,-2787 -6652,1273 -12639,4212 -17964,8815 -5324,4605 -9859,10092 -13605,16462 -3745,6371 -6724,13146 -8935,20327 -2212,7179 -3505,14115 -3879,20805zm4424 109610c9844,-1884 18108,-6980 24791,-15292 6684,-8312 12650,-18210 17900,-29694 -15205,1253 -31776,-2471 -49713,-11174 -1693,5564 -2832,11505 -3416,17822 -584,6318 -214,12935 1109,19852 2495,13037 5605,19198 9329,18486zm237494 -136037c4953,-1500 11138,-4131 18554,-7895 7416,-3762 13997,-9366 19744,-16808 5531,-7126 9532,-13960 12004,-20500 2472,-6540 3928,-12265 4367,-17176 440,-4911 47,-8765 -1178,-11565 -1225,-2800 -2769,-4020 -4631,-3664 -4523,865 -9114,3536 -13774,8013 -4659,4477 -9089,10151 -13291,17022 -4200,6871 -8198,14807 -11992,23807 -3794,8999 -7062,18588 -9803,28766zm74779 -173472c1008,1319 2207,4227 3597,8724 1390,4495 2798,9291 4227,14385 1427,5094 2655,9735 3684,13922 1028,4188 1611,6646 1751,7376 139,728 -811,1289 -2853,1680 -1167,223 -2545,335 -4132,336 -1587,1 -3202,-143 -4844,-433 -1643,-291 -3191,-676 -4644,-1153 -1451,-478 -2639,-1158 -3565,-2040 -1007,-1319 -1928,-3562 -2761,-6727 -832,-3168 -1570,-6428 -2212,-9783 -635,-4111 -1166,-8470 -1594,-13074 -1561,2113 -3254,4326 -5080,6640 -1414,2085 -3007,4431 -4776,7037 -1769,2607 -3510,5360 -5224,8257 -4668,7999 -7814,14270 -9439,18814 -1625,4545 -3168,6957 -4625,7235 -1313,252 -2840,-23 -4581,-824 -1740,-801 -3500,-1900 -5280,-3299 -1779,-1398 -3433,-2933 -4963,-4606 -1529,-1673 -2667,-3269 -3411,-4791 -543,-1256 -132,-3451 1235,-6585 1365,-3133 3339,-6649 5919,-10544 2580,-3896 5512,-7933 8795,-12115 3281,-4180 6510,-8049 9684,-11604 3176,-3556 6047,-6524 8615,-8905 2569,-2381 4436,-3684 5603,-3907 3500,-669 7393,-470 11680,600 4286,1069 7351,2864 9194,5384zm84974 177745c2392,-457 5428,-193 9111,792 3682,986 7447,2407 11295,4262 3850,1856 7339,3893 10467,6112 3129,2219 5337,4332 6623,6340 1586,2400 2495,5382 2725,8944 231,3562 -103,7120 -1000,10672 -898,3553 -2216,6679 -3953,9378 -1738,2699 -3911,4298 -6521,4797 -2608,499 -5785,93 -9530,-1219 -3745,-1312 -7344,-3046 -10800,-5202 -3455,-2157 -6605,-4484 -9449,-6983 -2845,-2497 -4802,-4772 -5870,-6821 -1110,-2267 -1824,-5117 -2143,-8550 -318,-3432 -160,-6730 473,-9894 635,-3165 1678,-5956 3131,-8375 1453,-2420 3266,-3837 5441,-4253z"/>
   <path class="fil3" d="M649002 1033537c25257,-28833 237778,-108683 349123,-99337 13150,1104 21925,4328 26510,7879 4592,3550 5896,7172 3925,10871 -1980,3701 -5253,5877 -9820,6527 -3578,465 -9598,2833 -18147,2146 -140923,-11260 -285650,70849 -340979,85326 -4423,1160 -7803,-3374 -10428,-5641 -2625,-2267 -2718,-4885 -184,-7771z"/>
  </g>
  <rect class="fil5" width="1322918" height="1181968"/>
 </g>
</svg>
